<?xml version="1.0" standalone="no"?>
<!DOCTYPE svg PUBLIC "-//W3C//DTD SVG 20010904//EN"
 "http://www.w3.org/TR/2001/REC-SVG-20010904/DTD/svg10.dtd">
<svg version="1.0" xmlns="http://www.w3.org/2000/svg"
 width="192.000000pt" height="192.000000pt" viewBox="0 0 192.000000 192.000000"
 preserveAspectRatio="xMidYMid meet">

<g transform="translate(0.000000,192.000000) scale(0.100000,-0.100000)"
fill="#000000" stroke="none">
<path d="M0 960 l0 -960 960 0 960 0 0 960 0 960 -960 0 -960 0 0 -960z m980
186 c0 -170 -7 -212 -31 -175 -10 16 -12 332 -2 342 3 4 12 7 20 7 10 0 13
-36 13 -174z m-80 -7 c0 -90 -3 -109 -15 -109 -12 0 -15 19 -15 108 0 60 3
112 6 115 18 17 24 -14 24 -114z m150 0 c0 -84 -3 -110 -12 -107 -9 3 -14 35
-16 103 -3 103 1 130 18 120 6 -4 10 -53 10 -116z m-229 1 c-3 -60 -5 -65 -20
-55 -6 3 -11 31 -11 61 0 47 3 55 17 52 14 -3 17 -13 14 -58z m307 3 c-4 -81
-28 -85 -28 -4 0 48 3 61 15 61 13 0 15 -11 13 -57z m-778 -233 c12 -8 9 -10
-12 -10 -35 0 -37 -23 -3 -38 14 -6 25 -18 25 -25 0 -31 -50 -50 -66 -25 -5 7
0 9 14 6 12 -3 26 0 32 7 9 11 5 17 -19 30 -35 17 -40 39 -13 54 21 13 24 13
42 1z m406 -30 c22 0 24 -4 22 -42 l-1 -43 -4 38 c-6 50 -35 48 -44 -3 -5 -26
-6 -17 -6 30 0 36 2 55 4 43 3 -16 11 -23 29 -23z m589 30 c3 -5 1 -10 -4 -10
-6 0 -11 5 -11 10 0 6 2 10 4 10 3 0 8 -4 11 -10z m105 0 c0 -5 -4 -10 -10
-10 -5 0 -10 5 -10 10 0 6 5 10 10 10 6 0 10 -4 10 -10z m-572 -24 c2 -10 -1
-22 -8 -26 -9 -6 -8 -14 5 -34 22 -33 9 -34 -17 -1 -25 32 -36 32 -41 -2 -2
-16 -5 -2 -6 30 l-1 58 32 -3 c23 -2 34 -9 36 -22z m543 -6 c26 0 29 -3 29
-34 0 -19 -4 -38 -10 -41 -6 -4 -10 8 -10 29 0 29 -4 36 -20 36 -15 0 -20 -7
-20 -29 0 -16 6 -32 13 -35 6 -3 3 -5 -8 -3 -14 2 -21 12 -26 39 -3 22 -1 42
5 48 7 7 12 7 14 0 2 -5 17 -10 33 -10z m-973 -28 c4 -28 -14 -52 -38 -52 -10
0 -21 -6 -23 -12 -3 -7 -6 11 -6 40 l-1 53 33 -3 c25 -2 33 -8 35 -26z m81 15
c14 -17 4 -27 -26 -27 -15 0 -23 -5 -20 -12 2 -7 14 -13 26 -12 13 0 18 -3 12
-9 -18 -18 -51 3 -51 32 0 15 3 31 7 34 11 12 40 8 52 -6z m89 -9 c3 -14 -3
-18 -28 -18 -28 0 -31 -2 -20 -15 8 -10 21 -13 33 -9 13 4 17 2 13 -5 -10 -16
-41 -14 -56 4 -7 9 -10 25 -6 41 5 20 12 25 34 22 16 -2 28 -10 30 -20z m62
13 c-18 -5 -25 -14 -25 -31 0 -21 4 -25 25 -22 18 2 22 0 13 -9 -19 -19 -53
-1 -53 30 0 35 7 41 39 40 l26 -1 -25 -7z m280 5 c0 -2 3 -11 6 -20 5 -13 -1
-16 -26 -16 -28 0 -31 -2 -20 -15 7 -9 19 -14 27 -11 7 3 13 1 13 -4 0 -14
-34 -12 -48 2 -13 13 -16 50 -5 61 7 8 53 10 53 3z m62 -7 c-32 -12 -27 -55 6
-52 13 2 21 -1 17 -7 -12 -19 -45 -10 -57 15 -13 30 3 55 36 54 20 0 20 -1 -2
-10z m108 -8 c5 -11 7 -26 4 -35 -8 -21 -42 -30 -59 -16 -15 13 -20 51 -8 63
13 14 53 6 63 -12z m83 0 c-3 -10 -14 -23 -26 -29 l-22 -11 22 0 c12 -1 25 -6
29 -12 10 -17 -21 -42 -43 -35 -16 5 -19 14 -17 54 1 26 2 48 3 50 1 1 14 2
30 2 24 0 28 -4 24 -19z m89 -17 c2 -19 0 -37 -4 -40 -4 -3 -8 11 -8 31 0 29
-3 36 -17 33 -12 -2 -20 -16 -24 -38 l-6 -35 -2 43 c-1 40 0 42 28 42 26 0 29
-4 33 -36z m35 -26 c-2 -13 -4 -3 -4 22 0 25 2 35 4 23 2 -13 2 -33 0 -45z
m198 28 c0 -36 -26 -56 -49 -37 -16 14 -22 52 -9 65 4 4 19 6 33 4 20 -2 25
-8 25 -32z m93 -11 c2 -22 0 -36 -4 -32 -5 4 -8 20 -9 35 0 17 -6 28 -17 30
-15 3 -18 -4 -18 -32 0 -20 -4 -36 -10 -36 -5 0 -10 18 -10 41 0 39 1 40 33
37 30 -3 32 -6 35 -43z"/>
<path d="M820 880 c0 -16 5 -21 23 -18 12 2 22 10 22 18 0 8 -10 16 -22 18
-18 3 -23 -2 -23 -18z"/>
<path d="M397 863 c-11 -10 -8 -41 5 -49 14 -9 38 23 31 42 -5 15 -25 19 -36
7z"/>
<path d="M485 860 c-3 -5 3 -10 14 -10 12 0 21 5 21 10 0 6 -6 10 -14 10 -8 0
-18 -4 -21 -10z"/>
<path d="M570 860 c0 -5 9 -10 21 -10 11 0 17 5 14 10 -3 6 -13 10 -21 10 -8
0 -14 -4 -14 -10z"/>
<path d="M915 860 c-3 -5 3 -10 14 -10 12 0 21 5 21 10 0 6 -6 10 -14 10 -8 0
-18 -4 -21 -10z"/>
<path d="M1076 854 c-9 -23 19 -53 35 -37 15 15 7 47 -12 51 -9 2 -19 -5 -23
-14z"/>
<path d="M1170 854 c0 -9 5 -14 12 -12 18 6 21 28 4 28 -9 0 -16 -7 -16 -16z"/>
<path d="M1166 801 c-3 -5 0 -11 7 -13 17 -7 38 2 31 13 -7 12 -31 12 -38 0z"/>
<path d="M1485 860 c-9 -15 4 -50 20 -50 16 0 29 35 20 50 -3 5 -12 10 -20 10
-8 0 -17 -5 -20 -10z"/>
</g>
</svg>
