<?xml version="1.0" standalone="no"?>
<!DOCTYPE svg PUBLIC "-//W3C//DTD SVG 20010904//EN"
 "http://www.w3.org/TR/2001/REC-SVG-20010904/DTD/svg10.dtd">
<svg version="1.0" xmlns="http://www.w3.org/2000/svg"
 width="128.000000pt" height="128.000000pt" viewBox="0 0 128.000000 128.000000"
 preserveAspectRatio="xMidYMid meet">

<g transform="translate(0.000000,128.000000) scale(0.100000,-0.100000)"
fill="#000000" stroke="none">
<path d="M0 640 l0 -640 640 0 640 0 0 640 0 640 -640 0 -640 0 0 -640z m650
120 c0 -73 -4 -120 -10 -120 -6 0 -10 47 -10 120 0 73 4 120 10 120 6 0 10
-47 10 -120z m-50 5 c0 -43 -4 -75 -10 -75 -6 0 -10 32 -10 75 0 43 4 75 10
75 6 0 10 -32 10 -75z m100 0 c0 -43 -4 -75 -10 -75 -11 0 -14 133 -3 143 12
13 13 7 13 -68z m-150 -5 c0 -22 -4 -40 -10 -40 -5 0 -10 18 -10 40 0 22 5 40
10 40 6 0 10 -18 10 -40z m200 0 c0 -22 -4 -40 -10 -40 -5 0 -10 18 -10 40 0
22 5 40 10 40 6 0 10 -18 10 -40z m-522 -157 c-22 -6 -23 -19 -3 -27 19 -7 20
-32 2 -39 -8 -3 -20 -1 -28 5 -11 8 -11 9 3 5 26 -9 31 6 7 24 -25 19 -18 40
14 38 17 -1 18 -2 5 -6z m259 -45 c-2 -13 -4 -5 -4 17 -1 22 1 32 4 23 2 -10
2 -28 0 -40z m99 10 c1 -32 -1 -35 -12 -20 -8 10 -9 21 -3 28 5 6 6 14 2 17
-14 14 -22 6 -26 -25 -4 -32 -4 -32 -5 5 -2 34 0 38 20 35 18 -2 22 -10 24
-40z m377 -4 c2 -13 0 -24 -4 -24 -5 0 -9 9 -9 20 0 11 -5 20 -11 20 -7 0 -9
-10 -7 -25 3 -14 2 -25 -2 -25 -9 0 -20 51 -14 62 9 14 42 -5 47 -28z m-665 0
c2 -14 -6 -24 -23 -32 -24 -11 -25 -10 -25 17 0 43 42 55 48 15z m52 16 c0 -5
-7 -7 -15 -4 -21 9 -19 -23 3 -35 9 -6 12 -11 6 -11 -18 0 -37 28 -30 45 6 16
36 21 36 5z m56 -8 c1 -7 0 -8 -3 -2 -8 17 -23 11 -23 -9 0 -11 6 -22 13 -24
9 -4 9 -6 -1 -6 -16 -1 -26 24 -18 45 7 17 28 15 32 -4z m38 3 c-19 -15 -19
-15 0 -30 11 -8 15 -15 9 -15 -6 0 -16 7 -23 15 -10 12 -10 18 0 30 7 8 17 15
23 15 6 0 2 -7 -9 -15z m74 -21 c-3 -14 -5 -12 -10 9 -3 19 -2 25 4 19 6 -6 8
-18 6 -28z m120 15 c3 -12 2 -12 -7 1 -15 21 -27 3 -13 -20 10 -16 9 -18 -3
-14 -15 6 -20 35 -8 48 10 10 26 2 31 -15z m45 14 c-16 -6 -17 -43 -1 -43 6 0
8 -3 5 -6 -4 -4 -13 -1 -22 6 -17 14 -4 51 18 49 9 0 9 -2 0 -6z m67 -9 c11
-12 11 -18 -2 -31 -19 -18 -38 -10 -38 16 0 33 20 40 40 15z m55 6 c4 -6 -1
-7 -11 -3 -13 5 -16 2 -12 -8 3 -8 2 -23 -3 -34 -6 -16 -7 -14 -7 10 1 17 3
33 5 38 6 10 21 9 28 -3z m31 -38 c-12 -11 -18 7 -10 30 l8 23 4 -23 c2 -13 1
-26 -2 -30z m32 12 c-3 -14 -5 -12 -10 9 -3 19 -2 25 4 19 6 -6 8 -18 6 -28z
m158 21 c8 -20 -13 -45 -32 -38 -14 5 -19 34 -7 46 11 12 33 7 39 -8z m61 -16
l3 -24 -10 23 c-5 12 -12 22 -15 22 -3 0 -10 -10 -15 -22 -9 -23 -9 -23 -9 -1
-2 39 43 42 46 2z m-190 -11 c-3 -7 -5 -2 -5 12 0 14 2 19 5 13 2 -7 2 -19 0
-25z"/>
<path d="M265 570 c-8 -13 4 -32 16 -25 12 8 12 35 0 35 -6 0 -13 -4 -16 -10z"/>
<path d="M720 560 c0 -13 5 -20 13 -17 6 2 12 10 12 17 0 7 -6 15 -12 18 -8 2
-13 -5 -13 -18z"/>
<path d="M992 566 c1 -10 8 -17 13 -17 15 1 12 24 -3 29 -9 3 -13 -2 -10 -12z"/>
</g>
</svg>
