<?xml version="1.0" standalone="no"?>
<!DOCTYPE svg PUBLIC "-//W3C//DTD SVG 20010904//EN"
 "http://www.w3.org/TR/2001/REC-SVG-20010904/DTD/svg10.dtd">
<svg version="1.0" xmlns="http://www.w3.org/2000/svg"
 width="180.000000pt" height="180.000000pt" viewBox="0 0 180.000000 180.000000"
 preserveAspectRatio="xMidYMid meet">

<g transform="translate(0.000000,180.000000) scale(0.100000,-0.100000)"
fill="#000000" stroke="none">
<path d="M0 900 l0 -900 900 0 900 0 0 900 0 900 -900 0 -900 0 0 -900z m915
170 c0 -118 -3 -164 -12 -167 -9 -3 -13 38 -15 162 -2 92 -1 169 1 171 3 2 10
3 15 1 7 -2 11 -61 11 -167z m-75 4 c0 -70 -4 -104 -11 -102 -6 2 -10 40 -10
98 0 116 -1 110 11 110 6 0 10 -42 10 -106z m148 -2 c2 -86 0 -102 -13 -102
-12 0 -15 17 -15 106 0 80 3 105 13 102 8 -3 13 -36 15 -106z m-220 3 c-4 -66
-22 -78 -26 -16 -4 49 2 71 18 71 7 0 10 -20 8 -55z m287 -3 c0 -70 -19 -67
-23 4 -2 43 0 55 10 52 8 -3 13 -23 13 -56z m-725 -222 c0 -6 -7 -10 -16 -8
-28 5 -27 -21 0 -32 14 -5 26 -15 26 -23 0 -30 -50 -51 -66 -26 -4 7 0 9 14 5
33 -11 37 14 6 39 -25 20 -27 25 -15 39 15 18 51 22 51 6z m361 -12 c2 -41 -3
-73 -12 -82 -5 -6 -9 12 -9 47 0 31 5 57 10 57 6 0 10 -10 11 -22z m128 8 c9
-11 9 -19 -1 -35 -10 -16 -10 -23 0 -33 6 -6 12 -17 12 -22 -1 -6 -12 2 -25
19 -18 21 -25 25 -29 15 -2 -8 -7 -22 -9 -30 -3 -8 -6 11 -6 43 -1 54 0 57 23
57 13 0 29 -6 35 -14z m441 4 c0 -5 -4 -10 -10 -10 -5 0 -10 5 -10 10 0 6 5
10 10 10 6 0 10 -4 10 -10z m100 0 c0 -5 -4 -10 -10 -10 -5 0 -10 5 -10 10 0
6 5 10 10 10 6 0 10 -4 10 -10z m-27 -24 c22 -5 27 -12 27 -36 0 -40 -18 -48
-22 -8 -2 17 -9 33 -15 36 -19 6 -28 -28 -14 -50 10 -16 10 -19 0 -16 -8 3
-17 20 -20 38 -7 35 -1 69 10 52 3 -5 18 -12 34 -16z m-925 -5 c20 -12 10 -55
-15 -66 -13 -5 -23 -13 -23 -17 0 -5 -3 -8 -7 -8 -15 0 -8 85 7 92 20 9 23 9
38 -1z m76 3 c26 -10 19 -34 -10 -34 -16 0 -24 -5 -21 -12 2 -7 15 -12 28 -10
17 2 21 0 12 -9 -6 -6 -19 -9 -29 -7 -23 4 -32 57 -12 69 16 10 13 10 32 3z
m80 0 c26 -10 19 -34 -10 -34 -16 0 -24 -5 -21 -12 2 -7 15 -12 28 -10 17 2
21 0 12 -9 -6 -6 -19 -9 -29 -7 -23 4 -32 57 -12 69 16 10 13 10 32 3z m86 -3
c0 -5 -8 -8 -17 -7 -13 1 -18 -6 -18 -24 0 -18 5 -25 18 -24 9 1 17 -3 17 -8
0 -5 -10 -8 -22 -6 -43 6 -34 77 10 78 6 0 12 -4 12 -9z m76 -37 c1 -29 1 -32
-3 -9 -3 17 -10 36 -16 44 -10 11 -9 13 3 9 10 -3 15 -19 16 -44z m172 34 c19
-19 14 -28 -14 -28 -16 0 -24 -5 -21 -12 2 -7 12 -12 21 -12 9 1 16 -2 16 -7
0 -13 -34 -11 -48 3 -22 22 -7 68 23 68 6 0 16 -5 23 -12z m78 0 c5 -7 2 -9
-9 -5 -8 3 -21 -1 -27 -9 -16 -18 6 -48 29 -39 13 5 14 4 3 -7 -15 -15 -45 0
-50 26 -7 34 37 61 54 34z m68 6 c22 -8 21 -63 0 -71 -36 -13 -68 33 -44 62
14 17 21 18 44 9z m86 -4 c13 -9 12 -13 -7 -29 -22 -18 -22 -19 -3 -24 23 -6
27 -32 5 -41 -30 -11 -45 5 -43 48 0 22 3 44 5 49 6 10 25 9 43 -3z m87 -35
c0 -22 -1 -29 -3 -15 -9 49 -13 54 -30 39 -8 -7 -13 -21 -11 -31 3 -10 1 -21
-4 -24 -5 -3 -9 12 -9 33 0 36 2 39 28 38 25 0 27 -4 29 -40z m43 4 c0 -22 -3
-38 -8 -36 -4 3 -6 20 -5 39 2 39 2 38 8 38 3 0 5 -18 5 -41z m180 21 c15 -28
-4 -62 -33 -58 -16 2 -23 11 -25 32 -5 44 38 64 58 26z m78 8 c7 -7 12 -25 12
-42 0 -35 -17 -24 -22 14 -4 35 -22 28 -29 -12 -7 -34 -10 -31 -12 12 -1 14 5
28 13 32 22 10 25 9 38 -4z"/>
<path d="M777 844 c-14 -15 -6 -34 14 -34 14 0 19 5 17 17 -3 18 -20 27 -31
17z"/>
<path d="M374 805 c-7 -18 2 -45 15 -45 12 0 24 37 16 50 -9 15 -25 12 -31 -5z"/>
<path d="M455 810 c-3 -5 3 -10 15 -10 12 0 18 5 15 10 -3 6 -10 10 -15 10 -5
0 -12 -4 -15 -10z"/>
<path d="M535 810 c-3 -5 3 -10 15 -10 12 0 18 5 15 10 -3 6 -10 10 -15 10 -5
0 -12 -4 -15 -10z"/>
<path d="M865 810 c-3 -5 1 -10 10 -10 9 0 13 5 10 10 -3 6 -8 10 -10 10 -2 0
-7 -4 -10 -10z"/>
<path d="M1014 806 c-8 -22 3 -49 19 -43 6 2 12 14 12 27 0 27 -22 39 -31 16z"/>
<path d="M1097 814 c-8 -8 1 -24 14 -24 5 0 9 7 9 15 0 15 -12 20 -23 9z"/>
<path d="M1090 750 c0 -5 9 -10 20 -10 11 0 20 5 20 10 0 6 -9 10 -20 10 -11
0 -20 -4 -20 -10z"/>
<path d="M1394 806 c-8 -22 3 -49 19 -43 6 2 12 14 12 27 0 27 -22 39 -31 16z"/>
</g>
</svg>
