<?xml version="1.0" standalone="no"?>
<!DOCTYPE svg PUBLIC "-//W3C//DTD SVG 20010904//EN"
 "http://www.w3.org/TR/2001/REC-SVG-20010904/DTD/svg10.dtd">
<svg version="1.0" xmlns="http://www.w3.org/2000/svg"
 width="256.000000pt" height="256.000000pt" viewBox="0 0 256.000000 256.000000"
 preserveAspectRatio="xMidYMid meet">

<g transform="translate(0.000000,256.000000) scale(0.100000,-0.100000)"
fill="#000000" stroke="none">
<path d="M0 1280 l0 -1280 1280 0 1280 0 0 1280 0 1280 -1280 0 -1280 0 0
-1280z m1295 244 c0 -206 -2 -239 -15 -239 -13 0 -15 33 -18 230 -1 126 0 236
3 243 3 8 11 12 18 9 9 -3 12 -60 12 -243z m-100 0 c0 -126 -2 -149 -15 -149
-12 0 -15 23 -18 140 -3 146 0 169 21 162 9 -3 12 -42 12 -153z m205 -6 c-4
-118 -8 -143 -20 -143 -13 0 -15 24 -18 144 -2 107 1 146 10 152 28 18 33 -10
28 -153z m-305 6 c0 -64 -3 -79 -15 -79 -12 0 -16 16 -18 69 -3 76 2 100 21
93 8 -2 12 -28 12 -83z m403 74 c18 -18 16 -133 -3 -148 -25 -21 -35 -1 -35
74 0 85 9 103 38 74z m-1023 -393 c0 -5 -13 -9 -29 -10 -43 0 -44 -23 -2 -40
38 -16 49 -48 24 -73 -14 -14 -57 -15 -78 -2 -16 10 -14 11 35 13 18 1 30 7
30 16 0 8 -13 22 -30 31 -34 19 -43 44 -24 66 13 16 74 16 74 -1z m502 -11
c-4 -22 -1 -25 15 -21 37 10 48 -2 48 -54 0 -27 -4 -49 -10 -49 -5 0 -10 21
-10 46 0 38 -3 45 -17 42 -13 -2 -19 -15 -21 -46 -5 -69 -20 -48 -24 33 -2 58
0 75 11 75 9 0 12 -8 8 -26z m184 16 c23 -13 25 -37 3 -61 -15 -17 -14 -20 6
-48 17 -25 18 -31 6 -31 -8 0 -23 14 -33 30 -9 17 -23 30 -30 30 -8 0 -13 -12
-13 -30 0 -16 -4 -30 -10 -30 -6 0 -10 32 -10 75 l0 75 31 0 c17 0 39 -5 50
-10z m630 -3 c-1 -12 -15 -9 -19 4 -3 6 1 10 8 8 6 -3 11 -8 11 -12z m139 3
c0 -5 -4 -10 -10 -10 -5 0 -10 5 -10 10 0 6 5 10 10 10 6 0 10 -4 10 -10z
m-36 -35 l36 2 0 -54 c0 -29 -4 -53 -10 -53 -5 0 -10 20 -10 45 0 43 -1 45
-30 45 -28 0 -30 -3 -30 -35 0 -24 5 -35 15 -35 8 0 15 -5 15 -11 0 -6 -10 -9
-22 -7 -19 2 -24 10 -26 46 -2 24 -8 42 -15 42 -7 0 -4 5 6 11 9 5 17 18 18
27 0 14 2 13 9 -3 6 -16 16 -21 44 -20z m-1354 -5 c41 22 74 -27 51 -77 -9
-21 -17 -24 -41 -21 -25 4 -29 2 -25 -13 3 -9 2 -20 -4 -23 -5 -4 -11 23 -13
65 -3 65 2 95 10 70 2 -7 10 -8 22 -1z m151 0 c10 -6 19 -20 19 -30 0 -16 -7
-20 -35 -20 -19 0 -35 -4 -35 -9 0 -17 29 -33 51 -26 14 5 19 4 15 -4 -4 -6
-20 -11 -36 -11 -46 0 -66 55 -33 92 19 21 27 22 54 8z m121 -7 c30 -27 22
-43 -22 -43 -22 0 -40 -4 -40 -9 0 -18 29 -32 57 -26 21 5 24 4 13 -4 -25 -18
-58 -12 -74 11 -21 30 -20 44 4 68 24 24 38 25 62 3z m102 11 c25 -10 19 -20
-11 -19 -24 0 -29 -5 -31 -29 -4 -32 13 -49 42 -40 12 4 16 2 12 -5 -9 -15
-49 -14 -64 1 -17 17 -15 64 4 82 17 18 24 19 48 10z m357 -4 c10 -6 19 -20
19 -30 0 -16 -7 -20 -35 -20 -23 0 -35 -5 -35 -14 0 -18 22 -26 51 -19 15 4
20 3 15 -5 -9 -16 -59 -15 -74 0 -17 17 -15 64 4 82 18 19 28 20 55 6z m116
-6 c2 -7 -5 -10 -21 -7 -21 4 -26 0 -32 -21 -9 -36 11 -57 45 -50 20 4 23 3
11 -5 -20 -14 -53 -14 -68 1 -17 17 -15 58 5 80 18 20 54 21 60 2z m104 6 c13
-7 19 -21 19 -43 0 -38 -15 -57 -46 -57 -51 0 -73 66 -32 94 26 19 33 19 59 6z
m126 0 c8 0 7 -9 -3 -30 -9 -18 -23 -30 -35 -30 -10 0 -19 -4 -19 -10 0 -5 14
-10 30 -10 38 0 52 -27 25 -46 -23 -17 -46 -18 -68 -1 -14 9 -15 18 -8 43 5
18 5 37 0 47 -13 22 17 50 45 43 12 -3 26 -6 33 -6z m111 -3 c14 -9 17 -97 3
-97 -6 0 -11 19 -13 43 -2 34 -7 42 -23 42 -16 0 -21 -8 -23 -42 -4 -61 -22
-53 -22 10 l0 52 33 0 c17 0 38 -4 45 -8z m62 -42 c0 -30 -4 -55 -10 -55 -11
0 -14 93 -3 103 12 12 13 8 13 -48z m250 35 c36 -36 16 -90 -34 -90 -31 0 -46
18 -46 57 0 50 44 69 80 33z m118 8 c14 -12 16 -98 2 -98 -5 0 -10 20 -10 45
0 37 -3 45 -19 45 -23 0 -29 -14 -26 -57 2 -23 -2 -33 -11 -33 -10 0 -14 14
-14 48 0 27 2 51 4 53 9 9 62 7 74 -3z"/>
<path d="M1100 1175 c0 -20 5 -25 24 -25 25 0 36 15 29 38 -3 6 -16 12 -29 12
-19 0 -24 -5 -24 -25z"/>
<path d="M534 1148 c-13 -21 -12 -47 3 -59 19 -17 45 8 41 40 -3 28 -31 40
-44 19z"/>
<path d="M647 1154 c-4 -4 -7 -11 -7 -16 0 -13 50 -6 53 7 2 12 -36 19 -46 9z"/>
<path d="M767 1154 c-14 -14 -6 -24 19 -24 16 0 24 5 22 13 -5 14 -31 21 -41
11z"/>
<path d="M1227 1154 c-14 -14 -6 -24 19 -24 16 0 24 5 22 13 -5 14 -31 21 -41
11z"/>
<path d="M1434 1135 c-8 -32 14 -59 40 -49 27 10 18 68 -11 72 -17 3 -24 -3
-29 -23z"/>
<path d="M1555 1149 c-8 -12 14 -31 30 -26 6 2 10 10 10 18 0 17 -31 24 -40 8z"/>
<path d="M1555 1069 c-4 -6 -2 -15 5 -19 17 -10 52 0 47 14 -5 15 -44 20 -52
5z"/>
<path d="M1984 1146 c-11 -28 0 -61 20 -61 27 0 44 30 30 53 -15 22 -43 27
-50 8z"/>
</g>
</svg>
