<?xml version="1.0" standalone="no"?>
<!DOCTYPE svg PUBLIC "-//W3C//DTD SVG 20010904//EN"
 "http://www.w3.org/TR/2001/REC-SVG-20010904/DTD/svg10.dtd">
<svg version="1.0" xmlns="http://www.w3.org/2000/svg"
 width="512.000000pt" height="512.000000pt" viewBox="0 0 512.000000 512.000000"
 preserveAspectRatio="xMidYMid meet">

<g transform="translate(0.000000,512.000000) scale(0.100000,-0.100000)"
fill="#000000" stroke="none">
<path d="M0 2560 l0 -2560 2560 0 2560 0 0 2560 0 2560 -2560 0 -2560 0 0
-2560z m2591 959 c21 -21 21 -25 18 -468 -2 -245 -7 -454 -11 -463 -10 -21
-66 -25 -73 -5 -2 6 -6 215 -10 464 -6 448 -6 452 14 472 26 26 36 26 62 0z
m-193 -459 c2 -200 -1 -287 -9 -296 -17 -20 -57 -17 -69 5 -6 12 -10 121 -10
285 0 252 1 267 20 286 15 15 25 17 42 11 l23 -8 3 -283z m410 1 c1 -176 -1
-279 -8 -291 -12 -22 -50 -26 -68 -8 -13 13 -18 554 -4 574 12 19 36 22 57 9
19 -12 20 -25 23 -284z m-624 143 c13 -12 16 -41 16 -154 0 -132 -1 -140 -22
-154 -19 -13 -25 -14 -43 -2 -18 12 -20 25 -23 154 -2 117 0 143 13 156 21 20
39 20 59 0z m810 0 c13 -12 16 -41 16 -154 0 -132 -1 -140 -22 -154 -19 -13
-25 -14 -43 -2 -18 12 -20 25 -23 154 -2 117 0 143 13 156 21 20 39 20 59 0z
m-2056 -778 c7 -7 10 -20 7 -28 -6 -15 -10 -15 -42 -2 -31 13 -38 13 -59 -1
-42 -27 -23 -61 45 -84 67 -22 87 -64 60 -124 -21 -46 -101 -62 -160 -32 -25
14 -28 18 -18 36 10 19 12 19 34 5 35 -23 81 -20 99 6 22 31 5 53 -53 73 -27
9 -54 21 -59 28 -34 43 -18 111 32 133 34 15 93 10 114 -10z m1012 -36 l0 -61
30 16 c40 21 57 19 85 -10 23 -22 25 -32 25 -110 0 -81 -1 -85 -22 -85 -22 0
-23 3 -20 69 4 83 -8 111 -46 111 -44 0 -52 -16 -52 -102 0 -71 -2 -78 -20
-78 -19 0 -20 7 -20 155 0 148 1 155 20 155 18 0 20 -7 20 -60z m1635 30 c0
-18 -6 -26 -23 -28 -24 -4 -38 18 -28 44 3 9 15 14 28 12 17 -2 23 -10 23 -28z
m275 15 c17 -20 5 -45 -20 -45 -23 0 -35 22 -26 45 7 19 30 19 46 0z m-1534
-19 c49 -42 34 -114 -29 -139 -8 -4 -9 -8 -1 -14 9 -7 58 -76 78 -110 5 -9 -2
-13 -23 -13 -25 0 -35 8 -66 60 -28 47 -42 60 -61 60 -23 0 -24 -3 -24 -60 0
-57 -1 -60 -25 -60 l-25 0 0 150 0 150 74 0 c64 0 79 -3 102 -24z m1376 -28
l3 -33 78 -3 77 -3 0 -104 0 -105 -25 0 c-25 0 -25 1 -25 91 l0 90 -52 -3 -53
-3 -3 -58 c-3 -60 10 -92 34 -83 7 3 17 -1 24 -8 13 -16 -6 -26 -49 -26 -43 0
-51 17 -51 102 0 63 -3 78 -15 78 -8 0 -15 7 -15 15 0 8 6 15 14 15 15 0 26
21 26 51 0 33 28 22 32 -13z m-2535 -52 c25 -22 28 -31 28 -84 0 -51 -4 -65
-25 -87 -22 -24 -31 -26 -72 -22 l-48 4 0 -38 c0 -32 -3 -39 -20 -39 -19 0
-20 7 -20 140 0 108 3 140 13 140 7 0 18 -5 23 -10 7 -7 20 -6 40 5 39 20 48
19 81 -9z m236 -6 c10 -9 19 -33 20 -51 l2 -34 -72 -3 c-80 -3 -91 -14 -53
-52 22 -22 69 -27 88 -8 9 9 15 9 25 -1 19 -19 -18 -41 -69 -41 -78 0 -125 72
-100 151 20 63 111 86 159 39z m202 16 c33 -14 40 -26 47 -81 3 -18 -4 -20
-69 -23 -60 -2 -73 -6 -73 -19 0 -43 57 -66 102 -42 15 8 23 8 32 -1 32 -33
-97 -56 -141 -25 -28 19 -47 77 -39 119 9 46 45 77 99 85 4 0 23 -5 42 -13z
m224 3 c46 -16 33 -35 -22 -31 -53 4 -67 -12 -67 -74 0 -61 41 -90 90 -64 26
14 39 -9 15 -27 -30 -21 -90 -16 -121 10 -38 33 -45 110 -14 150 35 44 67 54
119 36z m729 -25 c12 -14 22 -38 22 -55 l0 -29 -75 0 c-67 0 -74 -2 -68 -17
17 -49 60 -66 105 -42 16 8 22 8 29 -2 12 -19 -27 -38 -78 -39 -61 0 -94 31
-100 96 -4 40 -1 54 17 77 42 53 106 58 148 11z m201 25 c45 -16 34 -35 -18
-31 -49 4 -67 -8 -76 -49 -14 -65 39 -120 88 -90 15 10 22 10 31 1 26 -27 -67
-53 -119 -34 -38 15 -60 118 -34 165 10 19 60 48 85 49 6 0 25 -5 43 -11z
m238 -21 c29 -27 38 -77 23 -122 -15 -47 -44 -66 -98 -66 -83 0 -128 83 -90
166 25 54 117 66 165 22z m226 15 c36 -5 53 -23 22 -23 -10 0 -15 -10 -15 -29
0 -38 -40 -71 -87 -71 -54 0 -35 -24 28 -34 65 -10 79 -20 79 -57 0 -20 -8
-34 -26 -46 -31 -20 -108 -22 -141 -4 -28 14 -31 56 -5 70 14 8 15 12 5 22
-17 17 -16 24 3 43 14 15 14 17 0 32 -46 45 7 121 74 108 14 -2 42 -7 63 -11z
m232 -8 c23 -22 25 -32 25 -110 0 -81 -1 -85 -22 -85 -22 0 -23 3 -20 69 5
100 -20 132 -79 101 -16 -9 -19 -22 -19 -90 0 -73 -2 -80 -20 -80 -19 0 -20 7
-20 105 0 98 1 105 20 105 11 0 20 -5 20 -10 0 -6 12 -4 28 4 39 22 59 19 87
-9z m601 10 c65 -27 81 -129 28 -182 -36 -35 -106 -32 -145 6 -24 25 -29 38
-29 78 0 53 20 86 60 102 35 14 46 13 86 -4z m274 -11 c11 -10 16 -42 18 -104
l4 -90 -26 0 c-25 0 -25 1 -28 88 l-3 87 -28 3 c-47 6 -57 -12 -57 -99 0 -78
0 -79 -25 -79 l-25 0 0 105 c0 97 1 105 19 105 11 0 21 -5 23 -11 2 -6 14 -5
33 6 33 17 71 13 95 -11z m-748 -89 c-3 -96 -5 -105 -23 -105 -18 0 -19 8 -19
105 0 102 1 105 23 105 22 0 22 -2 19 -105z"/>
<path d="M2205 2402 c-3 -3 -5 -27 -5 -54 l0 -48 39 0 c53 0 86 41 62 79 -9
14 -86 32 -96 23z"/>
<path d="M1062 2308 c-16 -16 -16 -110 0 -126 18 -18 53 -15 71 6 20 22 23
102 5 120 -7 7 -24 12 -38 12 -14 0 -31 -5 -38 -12z"/>
<path d="M1297 2302 c-26 -28 -21 -32 38 -32 59 0 60 1 45 31 -14 25 -61 25
-83 1z"/>
<path d="M1520 2301 c-15 -30 -14 -31 40 -31 34 0 50 4 50 13 0 38 -71 52 -90
18z"/>
<path d="M2452 2308 c-26 -26 -13 -38 38 -38 34 0 50 4 50 13 0 21 -22 37 -50
37 -14 0 -31 -5 -38 -12z"/>
<path d="M2882 2308 c-18 -18 -15 -103 4 -122 22 -23 60 -20 78 6 22 31 20 91
-2 111 -22 20 -63 22 -80 5z"/>
<path d="M3117 2314 c-4 -4 -7 -18 -7 -30 0 -29 42 -43 66 -23 25 21 13 54
-21 57 -17 2 -34 0 -38 -4z"/>
<path d="M3104 2135 c-10 -25 9 -37 57 -33 36 2 44 7 44 23 0 17 -8 20 -48 23
-36 2 -49 -1 -53 -13z"/>
<path d="M3969 2303 c-8 -9 -14 -35 -14 -58 0 -51 18 -75 56 -75 34 0 59 32
59 75 0 43 -25 75 -59 75 -16 0 -35 -7 -42 -17z"/>
</g>
</svg>
